# xmcd
#
# Track frame offsets:
#	150
#	7613
#	20462
#	34783
#	48879
#	62908
#	76987
#	88440
#	102439
#	114449
#	128165
#	142493
#	157737
#	173334
#	186837
#	199489
#	210982
#	223927
#	235254
#	246360
#
# Disc length: 3473 seconds
#
# Revision: 3538997
# Processed by: cddbd v1.5.2PL0 Copyright (c) Steve Scherf et al.
# Submitted via: EZCDAudioConverter 8.0.5.1
#
DISCID=150d8f14
DTITLE=Various Artist - Blues Radio [CD3)
DYEAR=2017
DGENRE=
TTITLE0=Vera Hall - Trouble So Hard
TTITLE1=Muddy Waters - Hoochie Coochie Man
TTITLE2=Ethel Waters - Stormy Weather
TTITLE3=Howlin' Wolf - Smokestack Lightning
TTITLE4=Leadbelly - Midnight Special
TTITLE5=Billie Holiday - Good Morning, Heartache
TTITLE6=John Lee Hooker - Boom, Boom
TTITLE7=Bo Diddley - Before You Accuse Me
TTITLE8=Anita O'Day - I Can't Give You Anything But Love
TTITLE9=Memphis Minnie - Me And My Chauffeur Blues
TTITLE10=Lowell Fulson - Reconsider Baby
TTITLE11=Ray Charles - (Night Time Is) The Right Time
TTITLE12=Bessie Smith - Downhearted Blues
TTITLE13=Sonny Boy Williamson (2) - Good Morning Little School Girl
TTITLE14=Elmore James - The Sky Is Crying
TTITLE15=Sister Rosetta Tharpe - What Is The Soul Of Man?
TTITLE16=Arthur "Big Boy" Crudup - That's All Right Mama
TTITLE17=Ella Fitzgerald - Baby Won't You Please Come Home?
TTITLE18=Big Bill Broonzy - All By Myself
TTITLE19=Blind Lemon Jefferson - Match Box Blues
EXTD=
EXTT0=
EXTT1=
EXTT2=
EXTT3=
EXTT4=
EXTT5=
EXTT6=
EXTT7=
EXTT8=
EXTT9=
EXTT10=
EXTT11=
EXTT12=
EXTT13=
EXTT14=
EXTT15=
EXTT16=
EXTT17=
EXTT18=
EXTT19=
PLAYORDER=
